<?xml version="1.0" encoding="UTF-8" standalone="no"?>
<!DOCTYPE svg PUBLIC "-//W3C//DTD SVG 1.1//EN"
 "http://www.w3.org/Graphics/SVG/1.1/DTD/svg11.dtd">
<!-- Generated by graphviz version 2.42.4 (0)
 -->
<!-- Title: SkyrScoutGame Pages: 1 -->
<svg width="1107pt" height="1295pt"
 viewBox="0.00 0.00 1107.40 1295.40" xmlns="http://www.w3.org/2000/svg" xmlns:xlink="http://www.w3.org/1999/xlink">
<g id="graph0" class="graph" transform="scale(1 1) rotate(0) translate(25.2 1270.2)">
<title>SkyrScoutGame</title>
<polygon fill="#0b1117" stroke="transparent" points="-25.2,25.2 -25.2,-1270.2 1082.2,-1270.2 1082.2,25.2 -25.2,25.2"/>
<g id="clust1" class="cluster">
<title>cluster_round</title>
<path fill="#0b1117" stroke="#274351" d="M263,-78C263,-78 687,-78 687,-78 693,-78 699,-84 699,-90 699,-90 699,-586 699,-586 699,-592 693,-598 687,-598 687,-598 263,-598 263,-598 257,-598 251,-592 251,-586 251,-586 251,-90 251,-90 251,-84 257,-78 263,-78"/>
<text text-anchor="middle" x="475" y="-582.8" font-family="Arial" font-size="14.00" fill="#8fdff5">ONE MATCH ROUND — repeat 5 times</text>
</g>
<g id="clust2" class="cluster">
<title>cluster_data</title>
<path fill="#0b1117" stroke="#274351" d="M245,-619C245,-619 1037,-619 1037,-619 1043,-619 1049,-625 1049,-631 1049,-631 1049,-706 1049,-706 1049,-712 1043,-718 1037,-718 1037,-718 245,-718 245,-718 239,-718 233,-712 233,-706 233,-706 233,-631 233,-631 233,-625 239,-619 245,-619"/>
<text text-anchor="middle" x="641" y="-702.8" font-family="Arial" font-size="14.00" fill="#8fdff5">DATA LAYERS</text>
</g>
<!-- start -->
<g id="node1" class="node">
<title>start</title>
<ellipse fill="#18394a" stroke="#53c8ee" cx="107" cy="-1227" rx="36.45" ry="18"/>
<text text-anchor="middle" x="107" y="-1224.2" font-family="Arial" font-size="11.00" fill="#eef7fb">START</text>
</g>
<!-- scout -->
<g id="node2" class="node">
<title>scout</title>
<path fill="#14212b" stroke="#3c6677" d="M169,-1168C169,-1168 45,-1168 45,-1168 39,-1168 33,-1162 33,-1156 33,-1156 33,-1144 33,-1144 33,-1138 39,-1132 45,-1132 45,-1132 169,-1132 169,-1132 175,-1132 181,-1138 181,-1144 181,-1144 181,-1156 181,-1156 181,-1162 175,-1168 169,-1168"/>
<text text-anchor="middle" x="107" y="-1153.2" font-family="Arial" font-size="11.00" fill="#eef7fb">Choose Scout</text>
<text text-anchor="middle" x="107" y="-1141.2" font-family="Arial" font-size="11.00" fill="#eef7fb">(real report_by distribution)</text>
</g>
<!-- start&#45;&gt;scout -->
<g id="edge1" class="edge">
<title>start&#45;&gt;scout</title>
<path fill="none" stroke="#6b8793" d="M107,-1208.98C107,-1199.08 107,-1186.43 107,-1175.47"/>
<polygon fill="#6b8793" stroke="#6b8793" points="109.45,-1175.21 107,-1168.21 104.55,-1175.21 109.45,-1175.21"/>
</g>
<!-- draft1 -->
<g id="node3" class="node">
<title>draft1</title>
<path fill="#14212b" stroke="#3c6677" d="M149,-1091C149,-1091 65,-1091 65,-1091 59,-1091 53,-1085 53,-1079 53,-1079 53,-1067 53,-1067 53,-1061 59,-1055 65,-1055 65,-1055 149,-1055 149,-1055 155,-1055 161,-1061 161,-1067 161,-1067 161,-1079 161,-1079 161,-1085 155,-1091 149,-1091"/>
<text text-anchor="middle" x="107" y="-1076.2" font-family="Arial" font-size="11.00" fill="#eef7fb">Draft DEFENDER</text>
<text text-anchor="middle" x="107" y="-1064.2" font-family="Arial" font-size="11.00" fill="#eef7fb">choose 1 of 3</text>
</g>
<!-- scout&#45;&gt;draft1 -->
<g id="edge2" class="edge">
<title>scout&#45;&gt;draft1</title>
<path fill="none" stroke="#6b8793" d="M107,-1131.98C107,-1122.08 107,-1109.43 107,-1098.47"/>
<polygon fill="#6b8793" stroke="#6b8793" points="109.45,-1098.21 107,-1091.21 104.55,-1098.21 109.45,-1098.21"/>
</g>
<!-- draft2 -->
<g id="node4" class="node">
<title>draft2</title>
<path fill="#14212b" stroke="#3c6677" d="M151.5,-1014C151.5,-1014 62.5,-1014 62.5,-1014 56.5,-1014 50.5,-1008 50.5,-1002 50.5,-1002 50.5,-990 50.5,-990 50.5,-984 56.5,-978 62.5,-978 62.5,-978 151.5,-978 151.5,-978 157.5,-978 163.5,-984 163.5,-990 163.5,-990 163.5,-1002 163.5,-1002 163.5,-1008 157.5,-1014 151.5,-1014"/>
<text text-anchor="middle" x="107" y="-999.2" font-family="Arial" font-size="11.00" fill="#eef7fb">Draft MIDFIELDER</text>
<text text-anchor="middle" x="107" y="-987.2" font-family="Arial" font-size="11.00" fill="#eef7fb">choose 1 of 3</text>
</g>
<!-- draft1&#45;&gt;draft2 -->
<g id="edge3" class="edge">
<title>draft1&#45;&gt;draft2</title>
<path fill="none" stroke="#6b8793" d="M107,-1054.98C107,-1045.08 107,-1032.43 107,-1021.47"/>
<polygon fill="#6b8793" stroke="#6b8793" points="109.45,-1021.21 107,-1014.21 104.55,-1021.21 109.45,-1021.21"/>
</g>
<!-- draft3 -->
<g id="node5" class="node">
<title>draft3</title>
<path fill="#14212b" stroke="#3c6677" d="M146.5,-937C146.5,-937 67.5,-937 67.5,-937 61.5,-937 55.5,-931 55.5,-925 55.5,-925 55.5,-913 55.5,-913 55.5,-907 61.5,-901 67.5,-901 67.5,-901 146.5,-901 146.5,-901 152.5,-901 158.5,-907 158.5,-913 158.5,-913 158.5,-925 158.5,-925 158.5,-931 152.5,-937 146.5,-937"/>
<text text-anchor="middle" x="107" y="-922.2" font-family="Arial" font-size="11.00" fill="#eef7fb">Draft ATTACKER</text>
<text text-anchor="middle" x="107" y="-910.2" font-family="Arial" font-size="11.00" fill="#eef7fb">choose 1 of 3</text>
</g>
<!-- draft2&#45;&gt;draft3 -->
<g id="edge4" class="edge">
<title>draft2&#45;&gt;draft3</title>
<path fill="none" stroke="#6b8793" d="M107,-977.98C107,-968.08 107,-955.43 107,-944.47"/>
<polygon fill="#6b8793" stroke="#6b8793" points="109.45,-944.21 107,-937.21 104.55,-944.21 109.45,-944.21"/>
</g>
<!-- draft4 -->
<g id="node6" class="node">
<title>draft4</title>
<path fill="#14212b" stroke="#3c6677" d="M148,-860C148,-860 66,-860 66,-860 60,-860 54,-854 54,-848 54,-848 54,-836 54,-836 54,-830 60,-824 66,-824 66,-824 148,-824 148,-824 154,-824 160,-830 160,-836 160,-836 160,-848 160,-848 160,-854 154,-860 148,-860"/>
<text text-anchor="middle" x="107" y="-845.2" font-family="Arial" font-size="11.00" fill="#eef7fb">Draft WILDCARD</text>
<text text-anchor="middle" x="107" y="-833.2" font-family="Arial" font-size="11.00" fill="#eef7fb">choose 1 of 3</text>
</g>
<!-- draft3&#45;&gt;draft4 -->
<g id="edge5" class="edge">
<title>draft3&#45;&gt;draft4</title>
<path fill="none" stroke="#6b8793" d="M107,-900.98C107,-891.08 107,-878.43 107,-867.47"/>
<polygon fill="#6b8793" stroke="#6b8793" points="109.45,-867.21 107,-860.21 104.55,-867.21 109.45,-867.21"/>
</g>
<!-- draft5 -->
<g id="node7" class="node">
<title>draft5</title>
<path fill="#14212b" stroke="#3c6677" d="M148,-783C148,-783 66,-783 66,-783 60,-783 54,-777 54,-771 54,-771 54,-759 54,-759 54,-753 60,-747 66,-747 66,-747 148,-747 148,-747 154,-747 160,-753 160,-759 160,-759 160,-771 160,-771 160,-777 154,-783 148,-783"/>
<text text-anchor="middle" x="107" y="-768.2" font-family="Arial" font-size="11.00" fill="#eef7fb">Draft WILDCARD</text>
<text text-anchor="middle" x="107" y="-756.2" font-family="Arial" font-size="11.00" fill="#eef7fb">choose 1 of 3</text>
</g>
<!-- draft4&#45;&gt;draft5 -->
<g id="edge6" class="edge">
<title>draft4&#45;&gt;draft5</title>
<path fill="none" stroke="#6b8793" d="M107,-823.98C107,-814.08 107,-801.43 107,-790.47"/>
<polygon fill="#6b8793" stroke="#6b8793" points="109.45,-790.21 107,-783.21 104.55,-790.21 109.45,-790.21"/>
</g>
<!-- opponent -->
<g id="node8" class="node">
<title>opponent</title>
<path fill="#2c281b" stroke="#c7a84b" d="M202,-675C202,-675 12,-675 12,-675 6,-675 0,-669 0,-663 0,-663 0,-651 0,-651 0,-645 6,-639 12,-639 12,-639 202,-639 202,-639 208,-639 214,-645 214,-651 214,-651 214,-663 214,-663 214,-669 208,-675 202,-675"/>
<text text-anchor="middle" x="107" y="-660.2" font-family="Arial" font-size="11.00" fill="#eef7fb">AUTO&#45;DRAW OPPONENT</text>
<text text-anchor="middle" x="107" y="-648.2" font-family="Arial" font-size="11.00" fill="#eef7fb">High Press / Low Block / Counter / Aerial</text>
</g>
<!-- draft5&#45;&gt;opponent -->
<g id="edge7" class="edge">
<title>draft5&#45;&gt;opponent</title>
<path fill="none" stroke="#6b8793" d="M107,-746.97C107,-729.53 107,-702.26 107,-682.51"/>
<polygon fill="#6b8793" stroke="#6b8793" points="109.45,-682.34 107,-675.34 104.55,-682.34 109.45,-682.34"/>
</g>
<!-- buildup -->
<g id="node9" class="node">
<title>buildup</title>
<path fill="#14212b" stroke="#3c6677" d="M374.5,-567C374.5,-567 271.5,-567 271.5,-567 265.5,-567 259.5,-561 259.5,-555 259.5,-555 259.5,-543 259.5,-543 259.5,-537 265.5,-531 271.5,-531 271.5,-531 374.5,-531 374.5,-531 380.5,-531 386.5,-537 386.5,-543 386.5,-543 386.5,-555 386.5,-555 386.5,-561 380.5,-567 374.5,-567"/>
<text text-anchor="middle" x="323" y="-552.2" font-family="Arial" font-size="11.00" fill="#eef7fb">BUILD&#45;UP</text>
<text text-anchor="middle" x="323" y="-540.2" font-family="Arial" font-size="11.00" fill="#eef7fb">Choose unused player</text>
</g>
<!-- opponent&#45;&gt;buildup -->
<g id="edge16" class="edge">
<title>opponent&#45;&gt;buildup</title>
<path fill="none" stroke="#6b8793" d="M141.7,-638.97C179.85,-620.25 241.1,-590.19 281.69,-570.27"/>
<polygon fill="#6b8793" stroke="#6b8793" points="282.82,-572.45 288.02,-567.16 280.66,-568.05 282.82,-572.45"/>
</g>
<!-- breakthrough -->
<g id="node10" class="node">
<title>breakthrough</title>
<path fill="#14212b" stroke="#3c6677" d="M484.5,-481C484.5,-481 381.5,-481 381.5,-481 375.5,-481 369.5,-475 369.5,-469 369.5,-469 369.5,-457 369.5,-457 369.5,-451 375.5,-445 381.5,-445 381.5,-445 484.5,-445 484.5,-445 490.5,-445 496.5,-451 496.5,-457 496.5,-457 496.5,-469 496.5,-469 496.5,-475 490.5,-481 484.5,-481"/>
<text text-anchor="middle" x="433" y="-466.2" font-family="Arial" font-size="11.00" fill="#eef7fb">BREAKTHROUGH</text>
<text text-anchor="middle" x="433" y="-454.2" font-family="Arial" font-size="11.00" fill="#eef7fb">Choose unused player</text>
</g>
<!-- buildup&#45;&gt;breakthrough -->
<g id="edge8" class="edge">
<title>buildup&#45;&gt;breakthrough</title>
<path fill="none" stroke="#6b8793" d="M340.23,-530.63C349.8,-521.37 362.14,-510.06 374,-501 381.35,-495.39 389.58,-489.82 397.5,-484.78"/>
<polygon fill="#6b8793" stroke="#6b8793" points="398.85,-486.83 403.48,-481.04 396.24,-482.68 398.85,-486.83"/>
<text text-anchor="middle" x="391" y="-503.8" font-family="Arial" font-size="9.00" fill="#b9cbd3">success</text>
</g>
<!-- userresult -->
<g id="node12" class="node">
<title>userresult</title>
<path fill="#172a32" stroke="#3c6677" d="M372.21,-294.78C372.21,-294.78 300.16,-281.22 300.16,-281.22 294.26,-280.11 294.26,-277.89 300.16,-276.78 300.16,-276.78 372.21,-263.22 372.21,-263.22 378.1,-262.11 389.9,-262.11 395.79,-263.22 395.79,-263.22 467.84,-276.78 467.84,-276.78 473.74,-277.89 473.74,-280.11 467.84,-281.22 467.84,-281.22 395.79,-294.78 395.79,-294.78 389.9,-295.89 378.1,-295.89 372.21,-294.78"/>
<text text-anchor="middle" x="384" y="-276.2" font-family="Arial" font-size="11.00" fill="#eef7fb">Your attack result</text>
</g>
<!-- buildup&#45;&gt;userresult -->
<g id="edge11" class="edge">
<title>buildup&#45;&gt;userresult</title>
<path fill="none" stroke="#6b8793" d="M326.91,-530.83C337.48,-484.38 366.66,-356.19 378.7,-303.29"/>
<polygon fill="#6b8793" stroke="#6b8793" points="381.12,-303.71 380.28,-296.34 376.34,-302.63 381.12,-303.71"/>
<text text-anchor="middle" x="358.5" y="-417.8" font-family="Arial" font-size="9.00" fill="#b9cbd3">fail</text>
</g>
<!-- chance -->
<g id="node11" class="node">
<title>chance</title>
<path fill="#14212b" stroke="#3c6677" d="M617.5,-395C617.5,-395 514.5,-395 514.5,-395 508.5,-395 502.5,-389 502.5,-383 502.5,-383 502.5,-371 502.5,-371 502.5,-365 508.5,-359 514.5,-359 514.5,-359 617.5,-359 617.5,-359 623.5,-359 629.5,-365 629.5,-371 629.5,-371 629.5,-383 629.5,-383 629.5,-389 623.5,-395 617.5,-395"/>
<text text-anchor="middle" x="566" y="-380.2" font-family="Arial" font-size="11.00" fill="#eef7fb">CHANCE</text>
<text text-anchor="middle" x="566" y="-368.2" font-family="Arial" font-size="11.00" fill="#eef7fb">Choose unused player</text>
</g>
<!-- breakthrough&#45;&gt;chance -->
<g id="edge9" class="edge">
<title>breakthrough&#45;&gt;chance</title>
<path fill="none" stroke="#6b8793" d="M448.86,-444.88C458.39,-435.25 471.14,-423.5 484,-415 493.49,-408.72 504.23,-403.02 514.73,-398.08"/>
<polygon fill="#6b8793" stroke="#6b8793" points="515.88,-400.24 521.22,-395.1 513.83,-395.79 515.88,-400.24"/>
<text text-anchor="middle" x="501" y="-417.8" font-family="Arial" font-size="9.00" fill="#b9cbd3">success</text>
</g>
<!-- breakthrough&#45;&gt;userresult -->
<g id="edge12" class="edge">
<title>breakthrough&#45;&gt;userresult</title>
<path fill="none" stroke="#6b8793" d="M428.39,-444.88C419.57,-412.11 400.29,-340.49 390.29,-303.36"/>
<polygon fill="#6b8793" stroke="#6b8793" points="392.61,-302.54 388.42,-296.42 387.87,-303.82 392.61,-302.54"/>
<text text-anchor="middle" x="420.5" y="-374.8" font-family="Arial" font-size="9.00" fill="#b9cbd3">fail</text>
</g>
<!-- chance&#45;&gt;userresult -->
<g id="edge10" class="edge">
<title>chance&#45;&gt;userresult</title>
<path fill="none" stroke="#6b8793" d="M533.46,-358.84C499.63,-340.99 447.09,-313.28 414.16,-295.91"/>
<polygon fill="#6b8793" stroke="#6b8793" points="415.18,-293.68 407.85,-292.58 412.9,-298.01 415.18,-293.68"/>
</g>
<!-- oppattack -->
<g id="node13" class="node">
<title>oppattack</title>
<path fill="#2c281b" stroke="#c7a84b" d="M445,-199C445,-199 323,-199 323,-199 317,-199 311,-193 311,-187 311,-187 311,-175 311,-175 311,-169 317,-163 323,-163 323,-163 445,-163 445,-163 451,-163 457,-169 457,-175 457,-175 457,-187 457,-187 457,-193 451,-199 445,-199"/>
<text text-anchor="middle" x="384" y="-178.2" font-family="Arial" font-size="11.00" fill="#eef7fb">Automatic opponent attack</text>
</g>
<!-- userresult&#45;&gt;oppattack -->
<g id="edge13" class="edge">
<title>userresult&#45;&gt;oppattack</title>
<path fill="none" stroke="#6b8793" d="M384,-260.84C384,-245.68 384,-223.42 384,-206.41"/>
<polygon fill="#6b8793" stroke="#6b8793" points="386.45,-206.01 384,-199.01 381.55,-206.01 386.45,-206.01"/>
</g>
<!-- oppresult -->
<g id="node15" class="node">
<title>oppresult</title>
<path fill="#2a1d20" stroke="#9a5860" d="M360.19,-119.89C360.19,-119.89 283.19,-106.11 283.19,-106.11 277.29,-105.06 277.29,-102.94 283.19,-101.89 283.19,-101.89 360.19,-88.11 360.19,-88.11 366.09,-87.06 377.91,-87.06 383.81,-88.11 383.81,-88.11 460.81,-101.89 460.81,-101.89 466.71,-102.94 466.71,-105.06 460.81,-106.11 460.81,-106.11 383.81,-119.89 383.81,-119.89 377.91,-120.94 366.09,-120.94 360.19,-119.89"/>
<text text-anchor="middle" x="372" y="-101.2" font-family="Arial" font-size="11.00" fill="#eef7fb">Opponent scores?</text>
</g>
<!-- oppattack&#45;&gt;oppresult -->
<g id="edge15" class="edge">
<title>oppattack&#45;&gt;oppresult</title>
<path fill="none" stroke="#6b8793" d="M381.28,-162.98C379.65,-152.84 377.57,-139.82 375.79,-128.69"/>
<polygon fill="#6b8793" stroke="#6b8793" points="378.2,-128.22 374.67,-121.69 373.36,-128.99 378.2,-128.22"/>
</g>
<!-- defence -->
<g id="node14" class="node">
<title>defence</title>
<path fill="#14212b" stroke="#3c6677" d="M679,-309C679,-309 519,-309 519,-309 513,-309 507,-303 507,-297 507,-297 507,-261 507,-261 507,-255 513,-249 519,-249 519,-249 679,-249 679,-249 685,-249 691,-255 691,-261 691,-261 691,-297 691,-297 691,-303 685,-309 679,-309"/>
<text text-anchor="middle" x="599" y="-294.2" font-family="Arial" font-size="11.00" fill="#eef7fb">Defender counter&#45;effect</text>
<text text-anchor="middle" x="599" y="-282.2" font-family="Arial" font-size="11.00" fill="#eef7fb">position/class + situational height</text>
<text text-anchor="middle" x="599" y="-270.2" font-family="Arial" font-size="11.00" fill="#eef7fb">+ available YouTube Momentum</text>
<text text-anchor="middle" x="599" y="-258.2" font-family="Arial" font-size="11.00" fill="#eef7fb">(half if defender joined your attack)</text>
</g>
<!-- defence&#45;&gt;oppattack -->
<g id="edge14" class="edge">
<title>defence&#45;&gt;oppattack</title>
<path fill="none" stroke="#6b8793" d="M533.91,-248.94C500.01,-233.8 459.42,-215.67 429.02,-202.1"/>
<polygon fill="#6b8793" stroke="#6b8793" points="429.7,-199.72 422.31,-199.11 427.7,-204.2 429.7,-199.72"/>
<text text-anchor="middle" x="534" y="-221.8" font-family="Arial" font-size="9.00" fill="#b9cbd3">reduces scoring chance</text>
</g>
<!-- oppresult&#45;&gt;buildup -->
<g id="edge17" class="edge">
<title>oppresult&#45;&gt;buildup</title>
<path fill="none" stroke="#6b8793" stroke-dasharray="5,2" d="M348.3,-117.97C331.84,-128.15 310.68,-143.79 298,-163 276.2,-196.02 280.16,-209.77 275,-249 261.49,-351.81 297.29,-473.67 314.43,-524.21"/>
<polygon fill="#6b8793" stroke="#6b8793" points="312.13,-525.04 316.72,-530.86 316.76,-523.44 312.13,-525.04"/>
<text text-anchor="middle" x="295" y="-331.8" font-family="Arial" font-size="9.00" fill="#b9cbd3">next round</text>
</g>
<!-- final -->
<g id="node16" class="node">
<title>final</title>
<ellipse fill="#18394a" stroke="#53c8ee" cx="372" cy="-18" rx="109.19" ry="18"/>
<text text-anchor="middle" x="372" y="-15.2" font-family="Arial" font-size="11.00" fill="#eef7fb">FINAL SCORE after 5 rounds</text>
</g>
<!-- oppresult&#45;&gt;final -->
<g id="edge18" class="edge">
<title>oppresult&#45;&gt;final</title>
<path fill="none" stroke="#6b8793" d="M372,-85.6C372,-73.35 372,-56.8 372,-43.26"/>
<polygon fill="#6b8793" stroke="#6b8793" points="374.45,-43.1 372,-36.1 369.55,-43.1 374.45,-43.1"/>
<text text-anchor="middle" x="398" y="-58.8" font-family="Arial" font-size="9.00" fill="#b9cbd3">after round 5</text>
</g>
<!-- football -->
<g id="node17" class="node">
<title>football</title>
<path fill="#173024" stroke="#3c6677" d="M616.5,-681C616.5,-681 463.5,-681 463.5,-681 457.5,-681 451.5,-675 451.5,-669 451.5,-669 451.5,-645 451.5,-645 451.5,-639 457.5,-633 463.5,-633 463.5,-633 616.5,-633 616.5,-633 622.5,-633 628.5,-639 628.5,-645 628.5,-645 628.5,-669 628.5,-669 628.5,-675 622.5,-681 616.5,-681"/>
<text text-anchor="middle" x="540" y="-666.2" font-family="Arial" font-size="11.00" fill="#eef7fb">FOOTBALL</text>
<text text-anchor="middle" x="540" y="-654.2" font-family="Arial" font-size="11.00" fill="#eef7fb">position / height / structured traits</text>
<text text-anchor="middle" x="540" y="-642.2" font-family="Arial" font-size="11.00" fill="#eef7fb">Missing = no effect</text>
</g>
<!-- football&#45;&gt;buildup -->
<g id="edge19" class="edge">
<title>football&#45;&gt;buildup</title>
<path fill="none" stroke="#6b8793" stroke-dasharray="1,5" d="M492.91,-633C454.66,-614.31 401.22,-588.21 364.54,-570.29"/>
<polygon fill="#6b8793" stroke="#6b8793" points="365.26,-567.91 357.89,-567.04 363.11,-572.32 365.26,-567.91"/>
</g>
<!-- football&#45;&gt;breakthrough -->
<g id="edge20" class="edge">
<title>football&#45;&gt;breakthrough</title>
<path fill="none" stroke="#6b8793" stroke-dasharray="1,5" d="M527.09,-632.84C506.58,-596.03 466.76,-524.57 446.11,-487.53"/>
<polygon fill="#6b8793" stroke="#6b8793" points="448.04,-485.96 442.49,-481.03 443.76,-488.34 448.04,-485.96"/>
</g>
<!-- football&#45;&gt;chance -->
<g id="edge21" class="edge">
<title>football&#45;&gt;chance</title>
<path fill="none" stroke="#6b8793" stroke-dasharray="1,5" d="M543.32,-632.94C547.33,-604.38 554.02,-554.19 558,-511 561.49,-473.1 563.8,-428.98 565,-402.29"/>
<polygon fill="#6b8793" stroke="#6b8793" points="567.45,-402.34 565.31,-395.24 562.56,-402.13 567.45,-402.34"/>
</g>
<!-- football&#45;&gt;defence -->
<g id="edge22" class="edge">
<title>football&#45;&gt;defence</title>
<path fill="none" stroke="#6b8793" stroke-dasharray="1,5" d="M554,-632.75C559.96,-622.33 566.74,-609.76 572,-598 611,-510.74 627,-489.23 643,-395 645.68,-379.23 647.02,-374.49 643,-359 639.07,-343.85 631.52,-328.52 623.78,-315.45"/>
<polygon fill="#6b8793" stroke="#6b8793" points="625.72,-313.92 619.98,-309.22 621.54,-316.47 625.72,-313.92"/>
</g>
<!-- youtube -->
<g id="node18" class="node">
<title>youtube</title>
<path fill="#261f35" stroke="#3c6677" d="M844,-687C844,-687 668,-687 668,-687 662,-687 656,-681 656,-675 656,-675 656,-639 656,-639 656,-633 662,-627 668,-627 668,-627 844,-627 844,-627 850,-627 856,-633 856,-639 856,-639 856,-675 856,-675 856,-681 850,-687 844,-687"/>
<text text-anchor="middle" x="756" y="-672.2" font-family="Arial" font-size="11.00" fill="#eef7fb">LONG&#45;FORM YOUTUBE</text>
<text text-anchor="middle" x="756" y="-660.2" font-family="Arial" font-size="11.00" fill="#eef7fb">views / watch time / likes / recent form</text>
<text text-anchor="middle" x="756" y="-648.2" font-family="Arial" font-size="11.00" fill="#eef7fb">→ capped Momentum</text>
<text text-anchor="middle" x="756" y="-636.2" font-family="Arial" font-size="11.00" fill="#eef7fb">Missing = no effect</text>
</g>
<!-- youtube&#45;&gt;buildup -->
<g id="edge23" class="edge">
<title>youtube&#45;&gt;buildup</title>
<path fill="none" stroke="#6b8793" stroke-dasharray="1,5" d="M669.75,-627C660.43,-624.16 651.04,-621.44 642,-619 557.41,-596.19 458.64,-575.76 393.67,-563.16"/>
<polygon fill="#6b8793" stroke="#6b8793" points="394.04,-560.74 386.7,-561.81 393.11,-565.55 394.04,-560.74"/>
</g>
<!-- youtube&#45;&gt;breakthrough -->
<g id="edge24" class="edge">
<title>youtube&#45;&gt;breakthrough</title>
<path fill="none" stroke="#6b8793" stroke-dasharray="1,5" d="M706.94,-626.84C641.05,-587.67 525.57,-519.02 467.87,-484.73"/>
<polygon fill="#6b8793" stroke="#6b8793" points="469.07,-482.59 461.8,-481.12 466.56,-486.8 469.07,-482.59"/>
</g>
<!-- youtube&#45;&gt;chance -->
<g id="edge25" class="edge">
<title>youtube&#45;&gt;chance</title>
<path fill="none" stroke="#6b8793" stroke-dasharray="1,5" d="M736.03,-626.77C698.03,-571.18 616.07,-451.27 581.69,-400.96"/>
<polygon fill="#6b8793" stroke="#6b8793" points="583.71,-399.57 577.74,-395.17 579.67,-402.34 583.71,-399.57"/>
</g>
<!-- youtube&#45;&gt;defence -->
<g id="edge26" class="edge">
<title>youtube&#45;&gt;defence</title>
<path fill="none" stroke="#6b8793" stroke-dasharray="1,5" d="M752.48,-626.94C744.05,-566.76 718.33,-426.01 653,-329 649.59,-323.94 645.56,-319.06 641.25,-314.45"/>
<polygon fill="#6b8793" stroke="#6b8793" points="642.74,-312.47 636.09,-309.18 639.24,-315.9 642.74,-312.47"/>
</g>
<!-- shorts -->
<g id="node19" class="node">
<title>shorts</title>
<path fill="#302915" stroke="#3c6677" d="M1028.5,-687C1028.5,-687 895.5,-687 895.5,-687 889.5,-687 883.5,-681 883.5,-675 883.5,-675 883.5,-639 883.5,-639 883.5,-633 889.5,-627 895.5,-627 895.5,-627 1028.5,-627 1028.5,-627 1034.5,-627 1040.5,-633 1040.5,-639 1040.5,-639 1040.5,-675 1040.5,-675 1040.5,-681 1034.5,-687 1028.5,-687"/>
<text text-anchor="middle" x="962" y="-672.2" font-family="Arial" font-size="11.00" fill="#eef7fb">SHORTS</text>
<text text-anchor="middle" x="962" y="-660.2" font-family="Arial" font-size="11.00" fill="#eef7fb">player&#45;linked signature ability</text>
<text text-anchor="middle" x="962" y="-648.2" font-family="Arial" font-size="11.00" fill="#eef7fb">+ separate Short Buzz</text>
<text text-anchor="middle" x="962" y="-636.2" font-family="Arial" font-size="11.00" fill="#eef7fb">Bon Scout = creator bonus</text>
</g>
<!-- shorts&#45;&gt;breakthrough -->
<g id="edge27" class="edge">
<title>shorts&#45;&gt;breakthrough</title>
<path fill="none" stroke="#6b8793" stroke-dasharray="1,5" d="M890.54,-626.93C883.62,-624.21 876.68,-621.53 870,-619 734.57,-567.76 573.7,-512 490.01,-483.37"/>
<polygon fill="#6b8793" stroke="#6b8793" points="490.8,-481.05 483.39,-481.11 489.22,-485.69 490.8,-481.05"/>
</g>
<!-- shorts&#45;&gt;chance -->
<g id="edge28" class="edge">
<title>shorts&#45;&gt;chance</title>
<path fill="none" stroke="#6b8793" stroke-dasharray="1,5" d="M920.37,-626.77C840.37,-570.62 666.89,-448.82 596.55,-399.44"/>
<polygon fill="#6b8793" stroke="#6b8793" points="597.6,-397.19 590.46,-395.17 594.79,-401.2 597.6,-397.19"/>
</g>
<!-- scoutdata -->
<g id="node20" class="node">
<title>scoutdata</title>
<path fill="#1e2934" stroke="#3c6677" d="M412.5,-681C412.5,-681 253.5,-681 253.5,-681 247.5,-681 241.5,-675 241.5,-669 241.5,-669 241.5,-645 241.5,-645 241.5,-639 247.5,-633 253.5,-633 253.5,-633 412.5,-633 412.5,-633 418.5,-633 424.5,-639 424.5,-645 424.5,-645 424.5,-669 424.5,-669 424.5,-675 418.5,-681 412.5,-681"/>
<text text-anchor="middle" x="333" y="-666.2" font-family="Arial" font-size="11.00" fill="#eef7fb">SCOUT</text>
<text text-anchor="middle" x="333" y="-654.2" font-family="Arial" font-size="11.00" fill="#eef7fb">profile counts + category tendency</text>
<text text-anchor="middle" x="333" y="-642.2" font-family="Arial" font-size="11.00" fill="#eef7fb">from current player data</text>
</g>
<!-- scoutdata&#45;&gt;buildup -->
<g id="edge29" class="edge">
<title>scoutdata&#45;&gt;buildup</title>
<path fill="none" stroke="#6b8793" stroke-dasharray="1,5" d="M330.83,-633C329.19,-615.63 326.95,-591.85 325.28,-574.2"/>
<polygon fill="#6b8793" stroke="#6b8793" points="327.7,-573.78 324.61,-567.04 322.83,-574.24 327.7,-573.78"/>
</g>
<!-- scoutdata&#45;&gt;breakthrough -->
<g id="edge30" class="edge">
<title>scoutdata&#45;&gt;breakthrough</title>
<path fill="none" stroke="#6b8793" stroke-dasharray="1,5" d="M367.67,-632.82C379.51,-623.31 391.81,-611.38 400,-598 421.02,-563.67 428.66,-516.7 431.43,-488.45"/>
<polygon fill="#6b8793" stroke="#6b8793" points="433.88,-488.54 432.06,-481.35 429,-488.11 433.88,-488.54"/>
</g>
<!-- scoutdata&#45;&gt;chance -->
<g id="edge31" class="edge">
<title>scoutdata&#45;&gt;chance</title>
<path fill="none" stroke="#6b8793" stroke-dasharray="1,5" d="M382.34,-632.87C399.24,-623.51 417.51,-611.67 432,-598 494.21,-539.3 538.26,-445.5 556.56,-401.83"/>
<polygon fill="#6b8793" stroke="#6b8793" points="558.87,-402.66 559.28,-395.26 554.34,-400.79 558.87,-402.66"/>
</g>
</g>
</svg>
